# xmcd
#
# Track frame offsets:
#       150
#       12045
#       24842
#       37460
#       50187
#       62432
#       76532
#       88570
#       101832
#       113495
#       127550
#       141398
#       154953
#
# Disc length: 2217 seconds
#
# Revision: 2
# Processed by: cddbd v1.4PL0 Copyright (c) Steve Scherf et al.
# Submitted via: CD-DA_X-Tractor v0.21
#
DISCID=9b08a70d
DTITLE=Otis Rush - Double Trouble
DYEAR=1900
DGENRE=
TTITLE0=All Your Love
TTITLE1=Three Times A Fool
TTITLE2=She's A Good' un
TTITLE3=It Takes Time
TTITLE4=Double Trouble
TTITLE5=My Love Will Never Die
TTITLE6=My Baby Is A Good' un
TTITLE7=Checking On My Baby
TTITLE8=Jump Sister Bessie
TTITLE9=I Can't Quit You Baby
TTITLE10=Groaning The Blues
TTITLE11=Love That Woman
TTITLE12=Violent Love
EXTD=
EXTT0=
EXTT1=
EXTT2=
EXTT3=
EXTT4=
EXTT5=
EXTT6=
EXTT7=
EXTT8=
EXTT9=
EXTT10=
EXTT11=
EXTT12=
PLAYORDER=
